<svg id="Group_194" data-name="Group 194" xmlns="http://www.w3.org/2000/svg" width="42.108" height="26.724" viewBox="0 0 42.108 26.724">
  <g id="Group_193" data-name="Group 193">
    <path id="Path_171" data-name="Path 171" d="M92.432,0h-17.1a3.682,3.682,0,0,0-3.678,3.678v.368H56.208A2.209,2.209,0,0,0,54,6.252V20.778a2.209,2.209,0,0,0,2.207,2.207h.95V25.8a.919.919,0,0,0,1.569.65l3.47-3.47H80.459a2.209,2.209,0,0,0,2.207-2.207V18.02h9.766a3.682,3.682,0,0,0,3.678-3.678V3.678A3.682,3.682,0,0,0,92.432,0Zm-11.6,20.778a.368.368,0,0,1-.368.368H61.816a.919.919,0,0,0-.65.269L59,23.585V22.065a.919.919,0,0,0-.919-.919H56.208a.368.368,0,0,1-.368-.368V6.252a.368.368,0,0,1,.368-.368H71.653v8.458a3.682,3.682,0,0,0,3.678,3.678h5.5Zm13.443-6.436a1.841,1.841,0,0,1-1.839,1.839h-17.1a1.841,1.841,0,0,1-1.839-1.839V3.678a1.841,1.841,0,0,1,1.839-1.839h17.1a1.841,1.841,0,0,1,1.839,1.839Z" transform="translate(-54.001)" fill="#fff"/>
  </g>
</svg>
